<svg viewBox="0 0 200 200" xmlns="http://www.w3.org/2000/svg">
  <!-- Gradient definitions -->
  <defs>
    <linearGradient id="blueGradient" x1="0%" y1="0%" x2="100%" y2="100%">
      <stop offset="0%" style="stop-color:#568AF2;stop-opacity:1" />
      <stop offset="100%" style="stop-color:#4269b9;stop-opacity:1" />
    </linearGradient>

    <linearGradient id="darkGradient" x1="0%" y1="0%" x2="100%" y2="100%">
      <stop offset="0%" style="stop-color:#323844;stop-opacity:1" />
      <stop offset="100%" style="stop-color:#282c34;stop-opacity:1" />
    </linearGradient>

    <radialGradient id="glowGradient">
      <stop offset="0%" style="stop-color:#568AF2;stop-opacity:0.8" />
      <stop offset="50%" style="stop-color:#568AF2;stop-opacity:0.3" />
      <stop offset="100%" style="stop-color:#568AF2;stop-opacity:0" />
    </radialGradient>

    <filter id="glow">
      <feGaussianBlur stdDeviation="3" result="coloredBlur"/>
      <feMerge>
        <feMergeNode in="coloredBlur"/>
        <feMergeNode in="SourceGraphic"/>
      </feMerge>
    </filter>

    <filter id="outerGlow">
      <feGaussianBlur stdDeviation="2" result="coloredBlur"/>
      <feMerge>
        <feMergeNode in="coloredBlur"/>
        <feMergeNode in="SourceGraphic"/>
      </feMerge>
    </filter>
  </defs>

  <!-- Background base -->
  <circle cx="100" cy="100" r="95" fill="#1b1d21"/>

  <!-- Tron disc rings -->
  <g>
    <!-- Outer glowing ring -->
    <circle cx="100" cy="100" r="94" fill="none" stroke="#568AF2" stroke-width="2" opacity="0.3" filter="url(#outerGlow)"/>
    <circle cx="100" cy="100" r="92" fill="none" stroke="#568AF2" stroke-width="1" opacity="0.6"/>

    <!-- Inner rings -->
    <circle cx="100" cy="100" r="88" fill="none" stroke="#333841" stroke-width="1"/>
    <circle cx="100" cy="100" r="85" fill="none" stroke="#414855" stroke-width="0.5" opacity="0.8"/>

    <!-- Circuit patterns -->
    <g stroke="#568AF2" stroke-width="1" fill="none" opacity="0.4">
      <!-- Top circuit line -->
      <path d="M 100 10 L 100 20 M 95 15 L 105 15" />
      <!-- Right circuit line -->
      <path d="M 190 100 L 180 100 M 185 95 L 185 105" />
      <!-- Bottom circuit line -->
      <path d="M 100 190 L 100 180 M 95 185 L 105 185" />
      <!-- Left circuit line -->
      <path d="M 10 100 L 20 100 M 15 95 L 15 105" />
    </g>

    <!-- Diagonal circuit accents -->
    <g stroke="#414855" stroke-width="0.5" fill="none" opacity="0.6">
      <path d="M 45 45 L 55 55 M 50 45 L 45 50" />
      <path d="M 155 45 L 145 55 M 150 45 L 155 50" />
      <path d="M 155 155 L 145 145 M 150 155 L 155 150" />
      <path d="M 45 155 L 55 145 M 50 155 L 45 150" />
    </g>

    <!-- Inner disc -->
    <circle cx="100" cy="100" r="80" fill="#21252b"/>
    <circle cx="100" cy="100" r="78" fill="none" stroke="#333841" stroke-width="1" opacity="0.5"/>
  </g>

  <!-- Inner hexagon -->
  <g transform="translate(100, 100)">
    <!-- Shadow hexagon -->
    <path d="M -40 -23 L -40 23 L 0 46 L 40 23 L 40 -23 L 0 -46 Z"
          fill="#282c34"
          transform="translate(2, 2)"
          opacity="0.5"/>

    <!-- Main hexagon -->
    <path d="M -40 -23 L -40 23 L 0 46 L 40 23 L 40 -23 L 0 -46 Z"
          fill="url(#darkGradient)"
          stroke="#414855"
          stroke-width="1"/>

    <!-- Code brackets symbol -->
    <g fill="none" stroke="url(#blueGradient)" stroke-width="3" stroke-linecap="round" filter="url(#glow)">
      <!-- Left bracket -->
      <path d="M -20 -15 L -30 0 L -20 15" />
      <!-- Right bracket -->
      <path d="M 20 -15 L 30 0 L 20 15" />
    </g>

    <!-- Center accent dots -->
    <circle cx="-10" cy="0" r="3" fill="#89ca78" opacity="0.8"/>
    <circle cx="0" cy="0" r="3" fill="#d9a343" opacity="0.8"/>
    <circle cx="10" cy="0" r="3" fill="#cd3359" opacity="0.8"/>
  </g>

  <!-- Arc segments for additional Tron effect -->
  <g fill="none" stroke="#568AF2" stroke-width="1" opacity="0.3">
    <path d="M 100 25 A 75 75 0 0 1 155 55" stroke-dasharray="5,10"/>
    <path d="M 175 100 A 75 75 0 0 1 155 145" stroke-dasharray="5,10"/>
    <path d="M 100 175 A 75 75 0 0 1 45 145" stroke-dasharray="5,10"/>
    <path d="M 25 100 A 75 75 0 0 1 45 55" stroke-dasharray="5,10"/>
  </g>
</svg>